# xmcd
#
# Track frame offsets:
#	150
#	18918
#	45382
#	74178
#	88440
#	119032
#	136272
#	156931
#	178793
#	197561
#
# Disc length: 2786 seconds
#
# Revision: 1
# Processed by: cddbd v1.5.2PL0 Copyright (c) Steve Scherf et al.
# Submitted via: audiograbber 1.83.01
#
DISCID=930ae00a
DTITLE=B.B. King - The Thrill Is Gone (Live)
DYEAR=2006
DGENRE=Blues
TTITLE0=To Know You Is To Love You
TTITLE1=I Believe In Myself
TTITLE2=Why I Sing The Blues
TTITLE3=Ain't Nobody Home
TTITLE4=Sweet Sixteen
TTITLE5=Since I Met You Baby
TTITLE6=The Thrill Is Gone
TTITLE7=Guess Who
TTITLE8=I Like To Live The Love
TTITLE9=Black Blues
EXTD=
EXTT0=
EXTT1=
EXTT2=
EXTT3=
EXTT4=
EXTT5=
EXTT6=
EXTT7=
EXTT8=
EXTT9=
PLAYORDER=
